<?xml version="1.0" standalone="no"?>
<!DOCTYPE svg PUBLIC "-//W3C//DTD SVG 20010904//EN"
 "http://www.w3.org/TR/2001/REC-SVG-20010904/DTD/svg10.dtd">
<svg version="1.0" xmlns="http://www.w3.org/2000/svg"
 width="700.000000pt" height="700.000000pt" viewBox="0 0 700.000000 700.000000"
 preserveAspectRatio="xMidYMid meet">
<metadata>
Created by potrace 1.14, written by Peter Selinger 2001-2017
</metadata>
<g transform="translate(0.000000,700.000000) scale(0.100000,-0.100000)"
fill="#000000" stroke="none">
<path d="M3205 5407 l-290 -1322 -1322 -290 c-728 -159 -1323 -292 -1323 -295
0 -3 593 -135 1318 -294 724 -158 1319 -290 1322 -291 4 -2 136 -598 295
-1324 160 -727 292 -1321 295 -1321 3 0 136 595 295 1322 l290 1323 1322 290
c728 159 1323 292 1323 295 0 3 -595 136 -1323 295 l-1322 290 -290 1323
c-159 727 -292 1322 -295 1322 -3 0 -136 -595 -295 -1323z"/>
</g>
</svg>
